# xmcd CD database file
#
# Track frame offsets:
#	150
#	16899
#	36613
#	51518
#	69287
#	84285
#	104825
#	125901
#	141225
#	156966
#	177531
#	193580
#	213522
#	237855
#	280493
#	303964
#
# Disc length: 4331 seconds
#
# Revision: 0
# Processed by: cddbd v1.5.1PL2 Copyright (c) Steve Scherf et al.
# Submitted via: CDex 1.51
#
DISCID=f610e910
DTITLE=Randy Rogers - Live at Billy Bob's Texas
DYEAR=1900
DGENRE=Country
TTITLE0=Somebody Take Me Home
TTITLE1=Down And Out
TTITLE2=Like It Used To Be
TTITLE3=Company You Keep
TTITLE4=Still Be Losing You
TTITLE5=Can't Slow Down
TTITLE6=Love Must Follow You Around
TTITLE7=One Thing I Know
TTITLE8=Again
TTITLE9=I Never Meant To Break Your Heart
TTITLE10=Ten Miles Deep
TTITLE11=Tonight's Not The Night (For Goodbye)
TTITLE12=They Call It The Hill Country
TTITLE13=Lost And Found
TTITLE14=This Time Around
TTITLE15=An Empty Glass (That's The Way The Day Ends)
EXTD=
EXTT0=
EXTT1=
EXTT2=
EXTT3=
EXTT4=
EXTT5=
EXTT6=
EXTT7=
EXTT8=
EXTT9=
EXTT10=
EXTT11=
EXTT12=
EXTT13=
EXTT14=
EXTT15=
PLAYORDER=
